<?xml version="1.0" encoding="utf-8"?>
<svg xmlns="http://www.w3.org/2000/svg" fill="none" height="47" viewBox="0 0 50 47" width="50">
<path d="M46.5063 38.0108C42.847 43.3782 35.6918 46.1 25.2426 46.1L25.2251 46.1C14.7915 46.097 7.65372 43.3742 4.01029 38.0075C0.960353 33.5146 0.569211 27.7875 0.569212 23.3C0.569212 18.8126 0.960355 13.0857 4.0103 8.59306C7.65372 3.22644 14.7915 0.503581 25.2254 0.500002L25.2458 0.500002C35.6948 0.499824 42.847 3.22114 46.5061 8.58859C49.5756 13.0911 49.9692 18.8157 49.9692 23.3C49.9692 27.7841 49.5756 33.5085 46.5063 38.0108Z" fill="url(#paint0_linear_762_2837)"/>
<path d="M22.7009 11.1398C20.8049 11.1398 19.2696 12.6573 19.2696 14.5313V16.5235H24.4166C24.8846 16.5235 25.2697 17.2007 25.2697 17.6632H16.7009C14.8048 17.6632 13.2695 19.1807 13.2695 21.0547V25.5394C13.2695 27.4134 14.8048 28.9308 16.7009 28.9308H18.1165V25.7525C18.1165 23.8786 19.6425 22.3611 21.5385 22.3611H27.8386C29.7347 22.3611 31.27 20.8529 31.27 18.9789V14.5312C31.27 12.6572 29.7347 11.1398 27.8386 11.1398L22.7009 11.1398ZM21.8384 13.0487C22.3184 13.0487 22.7009 13.1921 22.7009 13.8919C22.7009 14.5917 22.3184 14.9482 21.8384 14.9482C21.3704 14.9482 20.9853 14.5917 20.9853 13.8919C20.9853 13.1921 21.3704 13.0487 21.8384 13.0487Z" fill="#E6C430"/>
<path d="M32.4202 17.0695V20.2478C32.4202 22.1217 30.8966 23.6392 29.0006 23.6392H22.7005C20.8045 23.6392 19.2692 25.145 19.2692 27.019V31.4667C19.269 31.9123 19.3576 32.3535 19.5299 32.7652C19.7022 33.1768 19.9549 33.5509 20.2736 33.8661C20.5922 34.1812 20.9706 34.4312 21.387 34.6018C21.8034 34.7725 22.2497 34.8603 22.7005 34.8604H27.838C28.2888 34.8603 28.7351 34.7725 29.1516 34.6018C29.568 34.4312 29.9463 34.1812 30.265 33.8661C30.5836 33.5509 30.8363 33.1768 31.0086 32.7652C31.181 32.3535 31.2696 31.9123 31.2694 31.4667V29.4745H26.1201C25.6521 29.4745 25.2693 28.7996 25.2693 28.3371H33.8382C34.2889 28.337 34.7353 28.2491 35.1517 28.0785C35.5681 27.9079 35.9464 27.6579 36.2651 27.3428C36.5837 27.0276 36.8364 26.6535 37.0088 26.2418C37.1811 25.8301 37.2697 25.3889 37.2695 24.9434V20.4609C37.2693 19.5615 36.9077 18.699 36.2643 18.063C35.6208 17.427 34.7481 17.0697 33.8382 17.0695L32.4202 17.0695ZM20.8536 22.423L20.8489 22.4276C20.8632 22.4248 20.879 22.4257 20.8934 22.423H20.8536ZM28.7006 31.0521C29.1686 31.0521 29.5537 31.4086 29.5537 32.1084C29.5534 32.3317 29.4634 32.5458 29.3034 32.7035C29.1434 32.8612 28.9266 32.9496 28.7006 32.9493C28.2206 32.9493 27.8381 32.8082 27.8381 32.1084C27.8381 31.4086 28.2206 31.0521 28.7006 31.0521Z" fill="#E6C430"/>
<defs>
<linearGradient gradientUnits="userSpaceOnUse" id="paint0_linear_762_2837" x1="0.580558" x2="45.9908" y1="0.62379" y2="49.8347">
<stop stop-color="#947E1E"/>
<stop offset="1" stop-color="#141412"/>
</linearGradient>
</defs>
</svg>