<?xml version="1.0" encoding="utf-8"?>
<svg xmlns="http://www.w3.org/2000/svg" fill="none" height="17" viewBox="0 0 16 17" width="16">
<path d="M4.13062 6.8501H2.88062C2.53544 6.8501 2.25562 7.12992 2.25562 7.4751V12.2251C2.25562 12.5703 2.53544 12.8501 2.88062 12.8501H4.13062C4.47579 12.8501 4.75562 12.5703 4.75562 12.2251V7.4751C4.75562 7.12992 4.47579 6.8501 4.13062 6.8501Z" fill="#29E0A9" stroke="#29E0A9" stroke-linecap="round" stroke-linejoin="round"/>
<path d="M8.63062 5.3501H7.38062C7.03544 5.3501 6.75562 5.62992 6.75562 5.9751V12.2251C6.75562 12.5703 7.03544 12.8501 7.38062 12.8501H8.63062C8.97579 12.8501 9.25562 12.5703 9.25562 12.2251V5.9751C9.25562 5.62992 8.97579 5.3501 8.63062 5.3501Z" fill="#29E0A9" stroke="#29E0A9" stroke-linecap="round" stroke-linejoin="round"/>
<path d="M13.1194 3.3501H11.8694C11.5242 3.3501 11.2444 3.62992 11.2444 3.9751V12.2251C11.2444 12.5703 11.5242 12.8501 11.8694 12.8501H13.1194C13.4646 12.8501 13.7444 12.5703 13.7444 12.2251V3.9751C13.7444 3.62992 13.4646 3.3501 13.1194 3.3501Z" fill="#505059" stroke="#505059" stroke-linecap="round" stroke-linejoin="round"/>
</svg>