<?xml version="1.0" encoding="utf-8"?>
<svg xmlns="http://www.w3.org/2000/svg" fill="none" height="47" viewBox="0 0 51 47" width="51">
<path d="M46.8526 38.0108C43.1933 43.3782 36.0381 46.1 25.5889 46.1L25.5714 46.1C15.1378 46.097 8.00003 43.3742 4.35661 38.0075C1.30667 33.5146 0.915525 27.7875 0.915525 23.3C0.915526 18.8126 1.30667 13.0857 4.35661 8.59306C8.00003 3.22644 15.1378 0.503581 25.5717 0.500002L25.5921 0.500002C36.0411 0.499824 43.1933 3.22114 46.8524 8.58859C49.9219 13.0911 50.3155 18.8157 50.3155 23.3C50.3155 27.7841 49.9219 33.5085 46.8526 38.0108Z" fill="url(#paint0_linear_762_1998)"/>
<path clip-rule="evenodd" d="M31.7482 15.7064V15.6087C31.061 15.4987 30.7464 15.1841 30.6365 14.5H30.5387C30.4288 15.1841 30.1142 15.4957 29.4301 15.6087V15.7064C30.1142 15.8194 30.4257 16.1309 30.5387 16.8181H30.6365C30.7495 16.1309 31.061 15.8194 31.7482 15.7064ZM37.6153 19.6282V19.732C35.4957 19.9244 34.6832 20.7399 34.4908 22.8565H34.387C34.1946 20.7399 33.3821 19.9244 31.2625 19.732V19.6282C33.3821 19.4357 34.1946 18.6233 34.39 16.5037H34.4878C34.6832 18.6233 35.4957 19.4357 37.6153 19.6282ZM23.2025 17.255L36.0822 32.5872H32.634L29.1125 28.3968H22.9643C22.8452 28.3968 22.7505 28.4334 22.6803 28.5067C22.607 28.58 22.5703 28.6747 22.5703 28.7877V32.5872H19.962V17.8231C19.962 17.3344 20.356 16.9404 20.8447 16.9404H22.5276C22.7872 16.9404 23.0346 17.0565 23.2025 17.255ZM22.5703 28.1921L24.467 26.1519H27.225L22.5703 20.6116V28.1921ZM13.6154 16.9434V32.587V32.5901H16.2023V16.9434H13.6154Z" fill="#DEE0FC" fill-rule="evenodd"/>
<defs>
<linearGradient gradientUnits="userSpaceOnUse" id="paint0_linear_762_1998" x1="0.924671" x2="46.4403" y1="0.625717" y2="49.9509">
<stop stop-color="#A29AF5"/>
<stop offset="1" stop-color="#342C66"/>
</linearGradient>
</defs>
</svg>